<svg width="51" height="39" viewBox="0 0 51 39" fill="none" xmlns="http://www.w3.org/2000/svg">
<g clip-path="url(#clip0_1_550)">
<path d="M49.7372 19.1657H45.7518C47.2291 17.13 48.0474 14.706 48.0474 12.1414C48.0474 8.89881 46.7614 5.84996 44.4446 3.55538C39.6622 -1.1529 31.8934 -1.1529 27.1216 3.55538C26.4627 4.20167 25.9314 4.92338 25.4425 5.6991C24.9642 4.94481 24.4222 4.2231 23.7527 3.55538C18.9703 -1.1529 11.2015 -1.1529 6.42971 3.55538C4.10227 5.84996 2.82696 8.89881 2.82696 12.1414C2.82696 14.7055 3.64528 17.1184 5.12252 19.1657H1.27533C0.563281 19.1657 1.80958e-05 19.7472 1.81336e-05 20.4582C-0.000877946 20.6277 0.0314445 20.7956 0.0951284 20.9524C0.158812 21.1092 0.252602 21.2518 0.37111 21.372C0.489617 21.4921 0.630506 21.5875 0.785681 21.6526C0.940856 21.7177 1.10726 21.7512 1.27533 21.7512H7.44996L24.5179 38.5577C24.5923 38.6331 24.9749 38.9455 25.4212 38.9562C25.7932 38.9562 26.2289 38.6764 26.3458 38.5577L43.3925 21.7512H49.7372C50.4492 21.7512 51.0125 21.1692 51.0125 20.4582C51.0125 19.7472 50.4386 19.1657 49.7372 19.1657ZM8.19389 5.42996C11.9879 1.69153 18.1626 1.69153 21.9566 5.42996C22.7643 6.2271 23.3914 7.09967 23.859 8.10167C23.9971 8.39267 24.5923 9.84681 25.4212 9.84681C26.2502 9.84681 26.8666 8.3601 26.9835 8.10167C26.9941 8.08024 27.0047 8.0691 27.0047 8.04767C27.4936 7.05638 28.0994 6.19453 28.8858 5.42996C32.6799 1.69153 38.8545 1.69153 42.6486 5.42996C44.4765 7.2291 45.4861 9.62053 45.4861 12.1525C45.4861 14.6948 44.4765 17.076 42.6486 18.8751L42.351 19.1661H35.2411L32.733 10.644C32.6587 10.3917 32.5103 10.1681 32.3072 10.0027C32.1042 9.83734 31.8561 9.738 31.5959 9.71781C31.3366 9.69804 31.0776 9.75863 30.8534 9.89145C30.6293 10.0243 30.4508 10.223 30.3418 10.461L25.1874 21.633L22.1798 14.3828C22.0884 14.1617 21.9374 13.9709 21.744 13.8319C21.5505 13.6929 21.3223 13.6113 21.0852 13.5964C20.6069 13.5535 20.1393 13.812 19.8949 14.232L17.0148 19.1558H8.49147L8.19389 18.8644C6.36595 17.0657 5.35633 14.6738 5.35633 12.1422C5.36695 9.61024 6.36595 7.22953 8.19389 5.43038V5.42996ZM25.4319 35.8542L11.1271 21.7624H17.4505C17.9713 21.7624 18.5027 21.7517 18.8534 21.2344L20.8301 17.97L23.9652 25.7485C24.1565 26.2225 24.5285 26.9554 25.1237 26.9554H25.1449C25.8144 26.9554 26.0908 26.2551 26.3033 25.8025L31.2558 14.652L33.0731 20.8362C33.1503 21.103 33.3111 21.3373 33.5314 21.5043C33.7517 21.6712 34.0197 21.7618 34.2953 21.7624H39.726L25.4319 35.8538V35.8542Z" fill="white"/>
</g>
<defs>
<clipPath id="clip0_1_550">
<rect width="51" height="39" fill="white"/>
</clipPath>
</defs>
</svg>
