<svg width="26" height="25" viewBox="0 0 26 25" fill="none" xmlns="http://www.w3.org/2000/svg">
<g clip-path="url(#clip0_1_537)">
<path d="M25.021 0.37677C25.5759 1.00981 25.5577 1.82179 25.021 2.36429L21.5429 5.81487C20.9052 6.36346 20.099 6.3396 19.5513 5.81487C19.0072 5.1991 19.0032 4.34617 19.5513 3.82735L23.0295 0.376791C23.6361 -0.130063 24.5 -0.121105 25.021 0.37677ZM7.65825 15.6145C8.26486 15.1077 9.12876 15.1166 9.6498 15.6145C10.1836 16.2129 10.2084 17.1091 9.6498 17.602L3.31056 23.8958C2.6729 24.4444 1.86673 24.4206 1.31901 23.8958C0.774897 23.28 0.770896 22.4271 1.31901 21.9083L7.65825 15.6145ZM13.7731 11.0321C13.7223 10.0179 12.8931 9.27758 11.9779 9.26542C10.9615 9.32065 10.1955 10.1336 10.1827 11.0321C10.1393 11.6755 9.71538 12.1009 9.11682 12.1087C8.45504 12.0609 8.05829 11.6133 8.05092 11.0321C8.08788 9.95035 8.48161 8.99033 9.20097 8.27167C10.0025 7.53298 10.9655 7.1471 11.9779 7.13987C13.0755 7.17498 14.0281 7.56687 14.7548 8.27167C15.5064 9.06531 15.8975 10.0308 15.9048 11.0321C15.8614 11.6755 15.4375 12.1009 14.839 12.1087C14.1772 12.0609 13.7804 11.6133 13.7731 11.0321ZM11.9779 3.05442C14.1312 3.09985 16.1251 3.94969 17.5318 5.33177C19.0135 6.87725 19.8175 8.88971 19.8318 10.8389C19.7873 12.6112 19.4685 13.4514 18.6257 14.8139C18.1656 15.8932 17.1047 16.6937 16.536 17.671C16.2136 18.681 16.4509 19.7814 16.4097 20.9007C16.3944 22.1491 15.8977 23.5448 15.0213 24.2271C14.0394 24.7903 13.0146 25 12.1181 25C11.3724 24.9429 10.8991 24.4119 10.8559 23.7578C10.8316 23.4174 10.9677 23.0992 11.1925 22.8745C11.7575 22.3075 12.3116 22.5221 13.0017 22.35C13.2509 22.2721 13.6107 22.1791 13.7029 21.9221C13.8618 21.4401 13.8567 20.8502 13.8572 20.4453C13.9038 19.4167 13.7078 18.4702 13.9273 17.5054C14.0778 16.8838 14.3254 16.2957 14.6987 15.8215C14.9509 15.4949 15.2395 15.2078 15.456 14.9244C15.7675 14.5451 16.02 14.1347 16.2695 13.7512C16.5386 13.3459 16.7494 12.944 16.9987 12.5504C17.1989 11.9839 17.2777 11.39 17.2792 10.8389C17.2285 9.38317 16.6905 8.09315 15.7225 7.1261C14.6436 6.13308 13.3417 5.60392 11.9779 5.59404C10.5002 5.64273 9.21225 6.17656 8.23321 7.1261C7.22318 8.19269 6.68652 9.49169 6.67644 10.8389C6.62225 11.5824 6.1051 12.0994 5.41422 12.1087C4.65509 12.0527 4.13335 11.5182 4.12393 10.8389C4.17295 8.71219 5.03118 6.74087 6.424 5.33181C7.96965 3.8561 10.0073 3.06848 11.9779 3.05442Z" fill="white"/>
</g>
<defs>
<clipPath id="clip0_1_537">
<rect width="25.4032" height="25" fill="white" transform="translate(0.468262)"/>
</clipPath>
</defs>
</svg>
