<svg width="60" height="60" viewBox="0 0 60 60" fill="none" xmlns="http://www.w3.org/2000/svg">
<path fill-rule="evenodd" clip-rule="evenodd" d="M23.2322 3.23222C23.7011 2.7634 24.337 2.5 25 2.5H45C49.1423 2.5 52.5 5.85788 52.5 10V50C52.5 54.1423 49.1423 57.5 45 57.5H15C10.8579 57.5 7.5 54.1423 7.5 50V20C7.5 19.337 7.7634 18.7011 8.23223 18.2322L23.2322 3.23222ZM45 7.5H27.5V20C27.5 21.3807 26.3808 22.5 25 22.5H12.5V50C12.5 51.3807 13.6193 52.5 15 52.5H45C46.3807 52.5 47.5 51.3807 47.5 50V10C47.5 8.6193 46.3807 7.5 45 7.5ZM16.0355 17.5H22.5V11.0355L16.0355 17.5ZM17.5 32.5C17.5 31.1192 18.6193 30 20 30H40C41.3807 30 42.5 31.1192 42.5 32.5C42.5 33.8808 41.3807 35 40 35H20C18.6193 35 17.5 33.8808 17.5 32.5ZM17.5 42.5C17.5 41.1193 18.6193 40 20 40H40C41.3807 40 42.5 41.1193 42.5 42.5C42.5 43.8807 41.3807 45 40 45H20C18.6193 45 17.5 43.8807 17.5 42.5Z" fill="white"/>
</svg>
