<svg width="26" height="24" viewBox="0 0 26 24" fill="none" xmlns="http://www.w3.org/2000/svg">
<path fill-rule="evenodd" clip-rule="evenodd" d="M25.7584 5V20H21.9455L21.9479 23.75L15.5971 20H10.5165V5H25.7584ZM15.5971 0V3.75H9.24634L9.24632 15.75L4.1657 18.75L4.16811 15H0.355225V0H15.5971ZM18.8836 8.75H17.3992L14.581 16.25H15.9202L16.7 14.1011H19.5613L20.3465 16.25H21.7663L18.8836 8.75ZM18.1306 10.0044C18.2467 10.3873 18.3697 10.7647 18.4995 11.1368L18.5555 11.2959L19.1955 13.0743H17.0604L17.7004 11.2959C17.8797 10.8054 18.0231 10.3749 18.1306 10.0044ZM7.3231 2.02378H6.05294L6.05292 2.64874L2.87754 2.64878V3.89878L7.61869 3.89883C7.54252 4.96339 7.26808 5.92227 6.79578 6.78129C6.28295 6.08716 5.92967 5.3113 5.73379 4.4489L5.72124 4.39253L4.4794 4.65502L4.57258 5.03662C4.85537 6.08124 5.34328 7.02256 6.03395 7.85519C5.28484 8.65071 4.21136 9.2087 2.79377 9.5267L2.73977 9.53866L3.01531 10.7589L3.39445 10.6691C4.87404 10.2908 6.05489 9.65215 6.92178 8.75109C7.52936 9.2668 8.28228 9.7543 9.18033 10.2161L9.2463 10.2498L9.24629 8.82641C8.63179 8.47806 8.11361 8.11989 7.69165 7.7533C8.39202 6.6332 8.79035 5.36686 8.88737 3.96275L8.89157 3.89883L9.24628 3.89878V2.64874H7.32306L7.3231 2.02378Z" fill="white"/>
</svg>
